# xmcd CD database file
#
# Track frame offsets:
#	150
#	11057
#	29285
#	40515
#	55175
#	73082
#	87237
#	101845
#	114235
#	132927
#	146940
#	165750
#
# Disc length: 2474 seconds
#
# Revision: 4
# Processed by: cddbd v1.4PL0 Copyright (c) Steve Scherf et al.
# Submitted via: CDex 1.50
#
DISCID=9a09a80c
DTITLE=Lyle Lovett - Lyle Lovett and his Large Band
DYEAR=1989
DGENRE=Blues
TTITLE0=The Blues Walk
TTITLE1=Here I Am
TTITLE2=Cryin' Shame
TTITLE3=Good Intentions
TTITLE4=I Know You Know
TTITLE5=What Do You Do - The Glory Of Love
TTITLE6=I Married Her Just Because She Looks Like You
TTITLE7=Stand By Your Man
TTITLE8=Which Way Does That Old Pony Run
TTITLE9=Nobody Knows Me
TTITLE10=If You Were To Wake Up
TTITLE11=Once Is Enough
EXTD=YEAR: 1989
EXTT0=
EXTT1=
EXTT2=
EXTT3=
EXTT4=
EXTT5=
EXTT6=
EXTT7=
EXTT8=
EXTT9=
EXTT10=
EXTT11=
PLAYORDER=
